<?xml version="1.0" encoding="UTF-8"?>
<!DOCTYPE svg PUBLIC "-//W3C//DTD SVG 1.1//EN" "http://www.w3.org/Graphics/SVG/1.1/DTD/svg11.dtd">
<!-- Creator: CorelDRAW 2019 (64-Bit) -->
<svg xmlns="http://www.w3.org/2000/svg" xml:space="preserve" width="148mm" height="148mm" version="1.1" style="shape-rendering:geometricPrecision; text-rendering:geometricPrecision; image-rendering:optimizeQuality; fill-rule:evenodd; clip-rule:evenodd"
viewBox="0 0 14800 14800"
 xmlns:xlink="http://www.w3.org/1999/xlink">
 <defs>
  <style type="text/css">
   <![CDATA[
    .fil0 {fill:#231F1F}
    .fil2 {fill:#FEFEFE;fill-rule:nonzero}
    .fil1 {fill:#FF9C00;fill-rule:nonzero}
   ]]>
  </style>
 </defs>
 <g id="Layer_x0020_1">
  <metadata id="CorelCorpID_0Corel-Layer"/>
  <rect class="fil0" x="-8.33" y="8.33" width="14800" height="14800" rx="2150.42" ry="2150.42"/>
 </g>
 <g id="__x0023_Layer_x0020_1">
  <metadata id="CorelCorpID_1Corel-Layer"/>
  <g id="_3084490066752">
   <path class="fil1" d="M12277.58 7289.86c45.03,1853.89 -1421.28,3392.23 -3274.78,3437.24 -345,8.38 -678.89,-35.9 -994.05,-124.08 263.94,-169.68 501.47,-374.91 707.21,-610.22 61.59,-68.94 120.02,-141.41 174.79,-215.52 15.69,-21.33 31.72,-43.26 47.01,-64.76 13.72,0.22 26.87,-0.1 40.38,-0.43 1292.97,-31.4 2315.27,-1105.15 2283.88,-2397.57 -31.42,-1293.94 -1104.62,-2316.22 -2397.59,-2284.81 -99.01,2.4 -196.34,11.23 -291.63,25.74 -89.2,13.42 -177.35,31.74 -262.14,54.75 -356.2,95.72 -677.51,272.13 -944.15,509.28 -62.33,54.49 -119.99,112.1 -175.86,172.71 -177.58,195.01 -322.25,418.94 -425.24,664.9 -58.78,136.88 -104.66,279.72 -135.34,428.31 -9.83,58.74 -196.94,903.98 705.66,973.31 70.82,-1.72 142.43,20.92 200.77,69.99 7.59,6.12 15.56,13.34 22.02,21.01 107.85,109.77 116.48,285.22 15.78,405.97 -101.28,120.77 -276.21,142.53 -402.52,55.68 -8.51,-5.71 -16.48,-11.41 -24.45,-18.46 -28.39,-23.7 -52.15,-52.65 -68.89,-82.9 0,0 -0.03,-0.97 -1.17,-1.5 -3.13,-11.56 -8.7,-21.32 -14.87,-31.46 -0.01,-0.39 -0.62,-1.89 -0.63,-2.28 -0.03,-1.13 -0.59,-1.51 -1.38,-2.07 -0.03,-1.32 -0.62,-2.83 -1.04,-3.95 -17.97,-34.05 -41.8,-65.87 -70.32,-94.87 -9.2,-10.09 -19.68,-18.22 -30.62,-29.18 -43.35,-36.1 -92.4,-62.34 -143.63,-78.24 -44.36,-13.96 -232.99,-86.16 -391.54,5.69 -1.36,0.04 -1.36,0.04 -1.36,0.04 -233.07,128.92 -445.56,55.78 -534.59,-25.12 -58.05,-52.89 -129.15,-125.07 -280.2,-140.07 -172.06,-16.78 -351.3,31.21 -473.07,171.14l-3.72 3.9c-17.19,21.93 -34.2,43.3 -48.27,67.64l-0.95 0.41c-77.49,72.36 -195.55,82.67 -283.1,22.7 -6.03,-4.42 -12.02,-8.48 -17.48,-13.68 -43.98,-37.23 -70.5,-86.49 -78.64,-139.07 -9.69,-62.26 6.62,-128.37 50.33,-179.73 43.66,-53.45 105.66,-80.29 169.27,-81.83l16.19 -0.4c14.59,5.18 30.45,7.06 47.05,8.57 20.1,3.52 41.64,4.52 62.22,4.02 144.03,0.31 288.52,-59.41 391.58,-177.34 59.12,-66.97 97.25,-145.06 115.24,-227.62 3.61,-16.26 7.24,-31.03 8.72,-48.6 0.36,-0.95 0.33,-2.47 0.85,-4.58 1.33,-8.22 1.49,-17.57 2.23,-25.77 1.12,-16.23 1.7,-32.44 1.3,-48.61l-0.07 -2.87c7.89,-216.22 37.06,-426.67 85.45,-631.32 11.05,-47.13 22.64,-94.83 36.18,-141.67 27.85,-99.93 60.71,-198.44 97.42,-294.39 110.06,-285.19 258.46,-552.29 438.3,-795.74 54.97,-73.73 113.39,-146.98 174.79,-215.52 264.52,-301.71 581.47,-554.96 938.24,-745.95 84.41,-45.48 171.43,-87.22 259.86,-124.62 382,-163.78 801.07,-260.06 1242.78,-270.78 1853.5,-45.02 3392.77,1420.69 3437.79,3274.58z"/>
   <path class="fil2" d="M2505.72 7527.18c-45.02,-1853.89 1421.08,-3392.59 3274.59,-3437.6 344.44,-8.37 678.52,35.92 993.69,124.65 -263.37,169.08 -500.92,374.31 -706.86,609.63 -61.95,68.97 -119.83,141.43 -174.79,215.54 -15.69,21.31 -32.3,43.25 -46.82,64.56 -13.71,-0.05 -27.23,0.28 -40.57,0.6 -1292.97,31.4 -2315.63,1105 -2284.23,2397.97 31.42,1293.55 1104.97,2315.66 2397.94,2284.25 99.2,-2.4 196.35,-11.04 291.44,-25.54 89.6,-12.85 177.55,-31.19 262.52,-54.79 355.65,-95.68 677.52,-272.1 943.99,-509.47 61.91,-54.29 120.15,-111.88 175.82,-172.88 177.21,-194.61 322.26,-418.55 425.48,-664.54 58.19,-136.86 104.63,-279.72 135.11,-428.3 9.44,-58.9 196.59,-903.79 -705.64,-973.5 -70.82,1.72 -142.26,-20.74 -201.15,-69.8 -7.01,-6.3 -15.01,-13.35 -21.47,-20.99 -107.84,-109.8 -117.05,-285.01 -15.77,-405.78 100.7,-120.37 275.62,-142.73 402.51,-55.9 8.35,5.72 16.48,11.41 24.28,18.46 28.01,23.71 52.13,52.65 69.07,82.91 0,0 0.02,0.96 0.61,1.34 3.71,11.71 8.9,21.48 14.84,31.62 0.01,0.39 1.01,1.69 1.02,2.28 0.03,1.13 0.62,1.5 0.99,2.07 0.04,1.33 1.23,2.82 1.64,3.78 17.41,34.8 41.8,66.61 69.75,95.08 9.56,10.05 20.04,18.17 30.6,29.14 43.37,36.11 92.39,62.35 143.65,78.08 44.33,14.16 233.35,86.32 391.54,-5.53 1.52,-0.04 1.52,-0.04 1.52,-0.04 233.11,-128.92 445.96,-55.78 534.99,25.11 57.88,52.9 128.59,125.09 280,140.1 172.28,16.75 350.94,-31.19 472.71,-171.13l3.72 -3.9c17.75,-21.97 34.76,-43.34 48.65,-67.68l0.74 -0.38c77.87,-72.39 195.35,-82.68 283.49,-22.72 5.83,4.25 11.84,8.47 16.92,13.69 44.34,37.21 70.47,86.32 79.19,139.06 9.73,62.25 -6.78,128.37 -50.49,179.72 -44.24,53.28 -106.07,80.3 -169.1,81.83l-16.17 0.4c-15.17,-5.14 -30.47,-7.06 -47.08,-8.76 -20.26,-3.32 -41.63,-4.13 -62.19,-3.63 -144.81,-0.49 -289.1,59.22 -391.77,177.15 -59.15,66.8 -97.06,145.05 -115.27,227.61 -3.59,16.1 -7.04,31.03 -8.52,48.6 -0.56,0.95 -0.52,2.5 -1.42,4.4 -0.76,8.42 -1.48,17.57 -1.86,25.95 -1.51,16.24 -1.48,32.25 -1.09,48.44l0.08 3.04c-8.66,216.24 -37.85,426.91 -85.45,631.32 -11.05,47.13 -23.05,95.06 -36.76,141.68 -27.88,99.94 -60.35,198.63 -97.45,294.23 -109.48,285.18 -257.85,552.45 -437.69,795.89 -55.16,73.76 -113.41,146.98 -175.37,215.53 -263.96,301.71 -581.11,554.99 -937.85,745.94 -84.83,45.53 -171.43,87.61 -260.47,124.64 -381.78,163.77 -800.85,260.08 -1242.2,270.8 -1853.5,45.01 -3392.57,-1420.34 -3437.59,-3274.23z"/>
  </g>
 </g>
</svg>
